<?xml version="1.0" standalone="no"?>
<!DOCTYPE svg PUBLIC "-//W3C//DTD SVG 20010904//EN"
 "http://www.w3.org/TR/2001/REC-SVG-20010904/DTD/svg10.dtd">
<svg version="1.0" xmlns="http://www.w3.org/2000/svg"
 width="534.000000pt" height="537.000000pt" viewBox="0 0 534.000000 537.000000"
 preserveAspectRatio="xMidYMid meet">

<g transform="translate(0.000000,537.000000) scale(0.100000,-0.100000)"
fill="black" stroke="none">
<path d="M2383 5319 c-214 -19 -521 -99 -750 -195 -463 -193 -867 -518 -1145
-919 -256 -369 -408 -771 -464 -1224 -20 -170 -15 -532 10 -691 96 -594 366
-1112 792 -1520 357 -341 730 -550 1191 -665 621 -155 1245 -86 1822 201 634
315 1115 870 1334 1539 253 772 139 1625 -306 2295 -401 602 -1024 1014 -1734
1145 -225 42 -516 55 -750 34z m732 -169 c534 -92 1108 -423 1462 -844 322
-384 515 -836 579 -1356 20 -163 15 -477 -11 -640 -85 -544 -337 -1026 -743
-1422 -368 -359 -834 -594 -1332 -673 -160 -26 -529 -31 -707 -11 -825 95
-1554 610 -1933 1365 -175 350 -260 712 -260 1112 0 270 31 495 100 727 82
276 250 593 445 837 394 496 974 828 1605 921 139 20 643 10 795 -16z"/>
<path d="M2611 4431 c-46 -43 -45 -89 2 -138 l30 -32 -32 -108 c-45 -147 -118
-347 -149 -408 -34 -68 -127 -156 -204 -194 -134 -66 -282 -75 -423 -26 -91
32 -155 77 -215 151 -71 88 -258 368 -266 399 -4 15 -1 38 5 51 6 14 11 42 11
63 0 90 -124 121 -165 40 -33 -63 -7 -120 66 -144 26 -9 36 -20 45 -51 7 -21
78 -297 159 -613 80 -316 151 -583 156 -593 6 -11 17 -17 27 -14 52 16 222 49
336 66 220 32 454 43 806 37 344 -6 434 -15 705 -67 216 -42 197 -43 212 10 8
25 72 272 144 550 147 572 175 670 190 670 28 0 78 34 90 61 39 95 -81 180
-149 106 -30 -33 -35 -61 -17 -102 8 -21 15 -45 15 -55 0 -20 -116 -205 -204
-325 -114 -156 -184 -211 -321 -250 -77 -23 -258 -17 -325 10 -120 49 -222
139 -269 238 -37 78 -150 417 -158 475 -5 38 -3 44 15 49 28 7 44 61 31 108
-19 69 -93 87 -148 36z"/>
<path d="M1900 2684 c0 -4 -16 -172 -35 -373 -20 -201 -36 -386 -38 -411 l-2
-45 83 -3 82 -3 0 66 0 65 49 0 c55 0 55 0 66 -82 l6 -48 81 0 c78 0 80 1 75
23 -3 12 -22 198 -43 412 -22 238 -41 393 -48 397 -14 9 -276 11 -276 2z m165
-365 c9 -95 18 -180 20 -187 4 -10 -6 -12 -38 -10 -25 2 -41 8 -40 15 1 6 7
85 13 175 17 250 23 251 45 7z"/>
<path d="M2390 2270 l0 -420 165 0 165 0 0 75 0 75 -85 0 -85 0 0 345 0 345
-80 0 -80 0 0 -420z"/>
<path d="M2840 2270 l0 -420 75 0 75 0 0 277 c0 152 3 274 6 271 3 -4 25 -122
50 -263 24 -142 49 -264 55 -271 15 -19 122 -19 138 0 6 7 29 118 50 247 l39
234 1 -247 1 -248 85 0 85 0 0 420 0 421 -132 -3 -132 -3 -32 -220 c-40 -282
-38 -275 -53 -170 -7 50 -23 158 -34 240 l-22 150 -127 3 -128 3 0 -421z"/>
<path d="M2792 1590 c-69 -31 -77 -60 -77 -275 0 -164 2 -183 21 -215 34 -59
102 -77 166 -44 28 15 32 15 40 0 12 -20 34 -21 42 0 3 9 6 83 6 165 l0 149
-71 0 -71 0 7 -47 c4 -27 11 -52 16 -58 10 -10 12 -85 3 -109 -10 -25 -33 -19
-40 10 -8 32 1 308 11 324 10 17 35 -8 35 -35 0 -32 23 -47 67 -43 l38 3 0 50
c-1 61 -31 110 -81 131 -44 18 -60 17 -112 -6z"/>
<path d="M3890 1596 c-61 -20 -70 -52 -70 -261 0 -228 4 -252 44 -276 38 -23
87 -24 128 -3 29 15 32 15 44 -1 8 -10 20 -15 29 -12 13 5 15 31 15 167 l0
160 -65 0 -65 0 0 -49 c0 -28 4 -52 9 -55 25 -16 21 -126 -5 -126 -24 0 -27
23 -26 177 2 190 15 224 47 128 9 -28 14 -30 64 -33 l53 -3 -6 48 c-10 65 -36
116 -66 129 -41 19 -93 23 -130 10z"/>
<path d="M1280 1320 l0 -280 55 0 55 0 0 113 c0 106 9 151 27 133 4 -4 10 -61
11 -127 l4 -119 59 0 59 0 0 105 c0 66 -5 120 -15 148 -13 40 -13 48 0 73 18
34 19 125 2 174 -17 49 -46 60 -159 60 l-98 0 0 -280z m145 129 c0 -32 -4 -44
-15 -44 -16 0 -26 54 -16 82 12 30 31 6 31 -38z"/>
<path d="M1640 1320 l0 -280 116 0 115 0 -3 53 -3 52 -57 3 -58 3 0 64 0 65
56 0 55 0 -3 53 -3 52 -53 3 -53 3 3 47 3 47 48 7 c27 4 51 9 54 12 3 3 8 25
10 51 l6 45 -117 0 -116 0 0 -280z"/>
<path d="M1950 1321 l0 -281 55 0 55 0 -2 278 -3 277 -52 3 -53 3 0 -280z"/>
<path d="M2150 1320 l0 -280 55 0 55 0 1 123 1 122 20 -85 c11 -47 24 -102 29
-122 l10 -38 54 0 55 0 0 280 0 280 -55 0 -55 0 0 -102 c-1 -119 -10 -115 -35
15 l-18 87 -58 0 -59 0 0 -280z"/>
<path d="M2520 1320 l0 -280 55 0 55 0 0 280 0 280 -55 0 -55 0 0 -280z"/>
<path d="M3080 1413 c1 -336 14 -373 131 -373 125 0 132 16 137 323 l4 237
-55 0 -55 0 -4 -224 c-2 -124 -7 -228 -11 -232 -22 -23 -30 27 -35 235 l-5
221 -53 0 -54 0 0 -187z"/>
<path d="M3440 1320 l0 -280 55 0 55 0 0 112 c0 61 3 108 8 104 4 -4 16 -53
27 -109 l21 -102 57 -3 57 -3 0 281 0 281 -52 -3 -53 -3 -5 -105 c-5 -100 -6
-103 -17 -65 -6 22 -15 58 -18 80 -16 103 -10 95 -76 95 l-59 0 0 -280z"/>
</g>
</svg>
