<?xml version="1.0" standalone="no"?>
<!DOCTYPE svg PUBLIC "-//W3C//DTD SVG 20010904//EN"
 "http://www.w3.org/TR/2001/REC-SVG-20010904/DTD/svg10.dtd">
<svg version="1.0" xmlns="http://www.w3.org/2000/svg"
 width="128.000000pt" height="128.000000pt" viewBox="0 0 128.000000 128.000000"
 preserveAspectRatio="xMidYMid meet">

<g transform="translate(0.000000,128.000000) scale(0.100000,-0.100000)"
fill="#000000" stroke="none">
<path d="M680 1265 c-20 -24 -2 -48 51 -63 138 -41 226 -90 305 -174 86 -89
135 -178 164 -295 12 -49 38 -69 65 -49 16 12 17 18 5 67 -61 263 -281 476
-541 524 -26 5 -39 2 -49 -10z"/>
<path d="M213 1198 c-40 -11 -146 -107 -179 -163 -34 -59 -40 -124 -19 -210
59 -240 266 -512 512 -672 194 -127 372 -179 471 -138 41 17 165 134 188 177
35 66 16 103 -113 230 -135 132 -164 137 -264 41 -69 -66 -76 -66 -170 6 -79
60 -171 158 -210 226 l-28 49 59 61 c97 102 93 143 -34 273 -109 114 -151 137
-213 120z m144 -160 c64 -64 93 -100 93 -116 0 -14 -24 -48 -65 -92 -62 -66
-64 -70 -55 -102 37 -127 320 -398 417 -398 22 0 43 14 88 60 82 83 90 82 203
-34 51 -51 92 -101 92 -111 0 -28 -128 -154 -171 -166 -79 -24 -272 47 -427
158 -97 69 -219 190 -287 283 -120 168 -190 353 -165 440 12 42 136 170 165
170 12 0 57 -37 112 -92z"/>
<path d="M676 1034 c-9 -8 -16 -19 -16 -24 0 -15 31 -40 48 -40 31 0 127 -51
166 -88 37 -36 96 -141 96 -173 0 -23 34 -51 53 -43 25 9 27 30 10 86 -21 72
-53 124 -110 179 -59 57 -102 82 -172 103 -66 19 -56 19 -75 0z"/>
</g>
</svg>
