<?xml version="1.0" standalone="no"?>
<!DOCTYPE svg PUBLIC "-//W3C//DTD SVG 20010904//EN"
 "http://www.w3.org/TR/2001/REC-SVG-20010904/DTD/svg10.dtd">
<svg version="1.0" xmlns="http://www.w3.org/2000/svg"
 width="128.000000pt" height="128.000000pt" viewBox="0 0 128.000000 128.000000"
 preserveAspectRatio="xMidYMid meet">

<g transform="translate(0.000000,128.000000) scale(0.100000,-0.100000)"
fill="#000000" stroke="none">
<path d="M73 1044 c-18 -9 -42 -31 -53 -49 -19 -31 -20 -49 -20 -355 0 -306 1
-324 20 -355 41 -66 31 -65 620 -65 589 0 579 -1 620 65 19 31 20 49 20 355 0
306 -1 324 -20 355 -41 66 -30 65 -622 65 -468 0 -537 -2 -565 -16z m812 -304
c-126 -126 -237 -230 -245 -230 -8 0 -119 104 -245 230 l-230 230 475 0 475 0
-230 -230z m-645 35 l145 -145 -144 -144 c-80 -80 -148 -143 -153 -140 -10 7
-11 574 0 574 4 0 72 -65 152 -145z m960 -139 c0 -157 -4 -287 -8 -290 -5 -3
-73 60 -153 140 l-144 144 145 145 c80 80 148 145 152 145 5 0 8 -128 8 -284z
m-587 -211 c46 -12 78 4 152 75 l71 69 129 -129 130 -130 -455 0 -455 0 130
130 129 129 71 -69 c40 -38 84 -72 98 -75z"/>
</g>
</svg>
